<?xml version="1.0" standalone="no"?>
<!DOCTYPE svg PUBLIC "-//W3C//DTD SVG 20010904//EN"
 "http://www.w3.org/TR/2001/REC-SVG-20010904/DTD/svg10.dtd">
<svg version="1.0" xmlns="http://www.w3.org/2000/svg"
 width="1117.000000pt" height="1280.000000pt" viewBox="0 0 1117.000000 1280.000000"
 preserveAspectRatio="xMidYMid meet">
<g transform="translate(0.000000,1280.000000) scale(0.100000,-0.100000)"
fill="#000000" stroke="none">
<path d="M2373 12781 c-27 -17 -33 -30 -48 -92 -37 -165 -48 -273 -49 -474 0
-221 8 -292 75 -635 74 -378 71 -523 -13 -681 -28 -54 -185 -217 -266 -277
-94 -69 -50 -206 137 -426 101 -118 368 -377 641 -620 129 -115 237 -216 238
-224 3 -11 -2 -13 -25 -8 -70 17 -388 115 -636 196 -628 205 -842 249 -1157
237 -226 -9 -413 -51 -641 -142 -281 -113 -649 -334 -624 -375 17 -27 73 -8
185 62 440 275 824 399 1240 400 353 1 602 -57 1295 -302 198 -70 391 -137
428 -150 53 -17 84 -36 143 -88 40 -36 74 -69 74 -74 0 -4 -9 -8 -20 -8 -30 0
-295 79 -680 203 -195 63 -405 129 -466 146 -480 132 -829 130 -1228 -6 -158
-54 -375 -156 -549 -261 -139 -83 -196 -134 -176 -158 6 -8 19 -14 28 -14 10
0 75 36 147 81 151 95 407 223 549 275 418 153 841 164 1337 33 117 -31 290
-89 908 -302 318 -109 255 -68 612 -403 621 -585 956 -1023 1043 -1369 14 -54
25 -123 25 -154 1 -31 7 -92 15 -136 56 -301 67 -388 72 -561 9 -287 -17 -476
-112 -804 -344 -1189 -1036 -2769 -1978 -4515 -77 -143 -160 -302 -184 -352
-174 -366 -11 -457 1162 -653 622 -104 978 -145 1255 -145 297 0 750 56 1425
175 363 64 585 113 715 159 l105 36 250 0 c215 -1 282 -5 480 -30 300 -38 537
-40 691 -7 442 95 821 356 1193 821 418 524 804 1357 1044 2256 68 253 90 367
128 665 24 193 -17 525 -98 775 -193 601 -674 1049 -1343 1249 -339 101 -781
125 -1090 59 -417 -89 -752 -349 -944 -732 -258 -512 -223 -1167 88 -1669 127
-205 329 -370 641 -522 202 -99 384 -158 590 -191 131 -22 420 -17 541 9 291
62 565 205 717 372 173 191 179 426 17 603 -71 77 -138 111 -222 112 -52 0
-73 -5 -95 -21 -15 -11 -81 -90 -145 -175 -160 -210 -278 -323 -400 -383 -126
-62 -190 -77 -323 -77 -172 0 -317 38 -524 137 -141 67 -216 120 -308 217
-267 282 -315 708 -123 1103 131 270 349 460 617 540 280 83 681 10 1108 -201
506 -250 845 -599 978 -1010 75 -228 76 -453 6 -760 -161 -701 -468 -1468
-793 -1985 -365 -581 -781 -918 -1230 -995 -105 -18 -505 -21 -667 -5 -204 21
-537 88 -557 113 -5 7 -17 37 -27 67 -21 66 -68 160 -190 385 -602 1107 -1171
2302 -1540 3230 -257 646 -489 1345 -544 1640 -59 314 -56 505 15 923 20 121
34 236 34 288 0 203 77 406 255 675 170 256 374 490 755 869 l246 245 115 34
c63 18 296 97 519 176 548 192 716 242 965 286 152 26 432 36 570 20 341 -40
711 -181 1044 -398 97 -63 126 -76 152 -68 53 17 1 69 -170 171 -469 279 -887
394 -1294 355 -233 -22 -442 -74 -897 -222 -502 -164 -857 -266 -872 -251 -4
4 20 35 55 69 l62 61 310 105 c171 58 441 150 602 205 407 139 640 194 900
211 373 25 721 -51 1101 -243 118 -58 267 -144 351 -202 44 -29 101 -33 101
-6 0 28 -54 73 -170 143 -294 176 -593 297 -855 345 -139 26 -467 26 -610 0
-154 -28 -379 -87 -610 -162 -532 -171 -649 -207 -780 -243 -197 -54 -208 -56
-203 -38 1 8 91 97 198 199 563 533 789 817 790 991 0 69 -22 107 -96 167
-156 127 -231 238 -259 384 -26 138 -20 219 45 551 56 285 71 414 71 610 -1
203 -19 369 -57 502 -16 57 -47 83 -99 83 -37 0 -116 -43 -141 -76 -208 -286
-379 -553 -731 -1142 -156 -262 -287 -479 -289 -481 -2 -2 -101 6 -221 17
-370 36 -582 45 -1023 45 -557 0 -1111 -35 -1489 -94 -57 -9 -66 -8 -81 8 -10
10 -157 252 -328 538 -305 510 -405 670 -569 910 -130 189 -168 234 -219 256
-57 24 -81 24 -121 0z"/>
</g>
</svg>
